<svg xmlns="http://www.w3.org/2000/svg" viewBox="0 0 700 148" role="img" aria-label="Montonio"><rect width="700" height="148" rx="23" fill="#413CD7"/><path d="M0.00,74.00L0.00,0.00L350.00,0.00L700.00,0.00L700.00,74.00L700.00,148.00L350.00,148.00L0.00,148.00L0.00,74.00ZM62.78,113.46C64.83,112.61 69.52,108.92 73.22,105.26L79.94,98.61L86.89,105.33C94.68,112.84 98.83,115.00 105.50,115.00C117.50,115.00 126.92,105.57 126.98,93.52L127.00,88.54L135.75,97.16C145.66,106.93 147.34,108.00 152.68,108.00C162.93,107.99 170.28,96.13 165.58,87.20C164.80,85.72 157.26,77.68 148.83,69.34C136.24,56.88 132.84,54.05 129.82,53.49C124.45,52.49 120.05,54.36 114.49,60.01C111.79,62.75 109.15,65.00 108.64,65.00C108.13,65.00 103.82,61.25 99.07,56.67C92.04,49.90 89.53,48.12 85.64,47.14C80.27,45.79 75.19,46.41 70.00,49.05C64.97,51.61 36.41,80.77 34.54,85.25C27.31,102.55 45.44,120.65 62.78,113.46ZM47.24,106.01C40.78,102.07 38.12,93.47 41.42,87.20C42.20,85.72 49.74,77.68 58.17,69.34C79.90,47.84 80.82,47.81 101.38,67.91C118.06,84.20 120.00,86.85 120.00,93.28C120.00,102.05 114.16,108.00 105.53,108.00C100.36,108.00 98.61,106.87 88.79,97.20L80.09,88.63L70.99,97.56C65.99,102.48 61.14,106.81 60.20,107.18C56.78,108.55 50.47,107.98 47.24,106.01ZM334.57,105.25C350.39,97.08 353.73,73.84 340.90,61.12C328.53,48.85 305.71,51.50 296.63,66.26C294.29,70.06 293.60,72.51 293.23,78.37C292.31,92.72 298.01,101.87 310.88,106.68C316.26,108.69 329.44,107.89 334.57,105.25ZM447.00,106.99C453.16,105.23 453.41,104.86 452.03,99.14L450.81,94.05L447.96,95.52C446.38,96.34 443.53,97.00 441.61,97.00C435.80,97.00 435.00,94.79 435.00,78.78L435.00,65.00L442.50,65.00L450.00,65.00L450.00,60.00L450.00,55.00L442.50,55.00L435.00,55.00L435.00,45.50L435.00,36.00L428.50,36.00L422.00,36.00L422.00,45.50L422.00,55.00L419.00,55.00C416.07,55.00 416.00,55.11 416.00,60.00C416.00,64.84 416.09,65.00 418.88,65.00L421.76,65.00L422.21,80.75C422.72,98.61 423.85,102.72 429.19,105.97C432.87,108.22 441.05,108.69 447.00,106.99ZM501.86,104.48C510.40,99.83 515.00,91.60 515.00,80.98C515.00,66.52 506.61,56.48 492.34,53.83C475.74,50.75 461.08,61.34 459.38,77.64C457.95,91.35 465.28,102.96 477.99,107.12C479.37,107.57 484.11,107.82 488.51,107.66C495.14,107.43 497.45,106.88 501.86,104.48ZM652.50,105.26C657.22,102.80 662.09,97.85 664.50,93.09C666.82,88.48 667.52,79.35 666.03,73.14C660.51,50.11 626.34,46.04 614.58,67.00C611.81,71.95 611.50,73.35 611.51,81.00C611.52,90.38 612.81,93.93 618.36,99.84C624.29,106.14 629.71,108.05 640.50,107.64C646.21,107.43 649.64,106.75 652.50,105.26ZM211.00,90.97C211.00,72.80 211.88,69.27 217.19,66.03C223.24,62.34 228.98,64.00 231.45,70.16C232.63,73.12 233.00,77.95 233.00,90.57L233.00,107.10L239.25,106.80L245.50,106.50L246.00,88.95C246.57,68.96 247.24,66.91 253.88,64.92C258.90,63.41 262.93,64.72 265.18,68.58C266.57,70.96 266.94,74.72 267.19,89.00L267.50,106.50L273.84,106.80L280.18,107.10L279.84,86.30C279.52,66.64 279.37,65.28 277.16,61.41C273.79,55.54 269.89,53.52 262.00,53.55C254.54,53.58 248.41,56.19 245.54,60.58L243.78,63.27L241.77,60.10C236.38,51.59 221.02,50.78 213.21,58.59C209.50,62.30 208.83,62.65 209.07,60.75C209.75,55.56 209.21,55.00 203.50,55.00L198.00,55.00L198.00,80.33C198.00,94.27 198.30,105.97 198.67,106.33C199.03,106.70 201.96,107.00 205.17,107.00L211.00,107.00L211.00,90.97ZM372.27,89.97C372.75,75.83 373.17,72.40 374.72,69.72C378.38,63.45 388.19,62.69 392.41,68.35C394.28,70.85 394.51,72.83 394.85,89.06L395.22,107.00L401.18,107.00L407.14,107.00L406.82,86.25C406.46,63.14 405.61,59.56 399.61,55.91C392.27,51.44 380.32,52.74 374.41,58.65L371.00,62.07L371.00,58.53L371.00,55.00L365.50,55.00L360.00,55.00L360.00,81.00L360.00,107.00L365.85,107.00L371.70,107.00L372.27,89.97ZM539.00,88.83C539.48,71.89 539.60,71.05 541.90,68.61C545.26,65.03 550.16,63.57 554.26,64.92C559.99,66.81 560.46,68.54 560.83,88.80L561.16,107.09L567.33,106.80L573.50,106.50L573.46,86.97C573.43,68.27 573.32,67.23 570.96,62.49C568.17,56.87 564.48,54.30 557.90,53.40C551.75,52.56 545.59,54.47 540.94,58.67L537.00,62.23L537.00,58.62L537.00,55.00L531.50,55.00L526.00,55.00L526.00,81.05L526.00,107.10L532.25,106.80L538.50,106.50L539.00,88.83ZM600.00,81.00L600.00,55.00L594.00,55.00L588.00,55.00L588.00,81.00L588.00,107.00L594.00,107.00L600.00,107.00L600.00,81.00ZM317.28,95.99C310.08,94.37 306.00,88.89 306.00,80.85C306.00,72.12 311.37,66.03 319.68,65.30C326.17,64.73 330.78,67.27 333.82,73.07C340.25,85.38 330.46,98.96 317.28,95.99ZM483.18,95.97C476.97,94.57 472.00,87.81 472.00,80.74C472.00,75.80 475.91,68.96 480.00,66.76C484.36,64.41 491.97,64.85 495.82,67.68C501.76,72.03 503.81,82.15 500.14,89.02C497.11,94.68 490.14,97.54 483.18,95.97ZM635.50,96.03C631.01,95.00 628.38,93.02 626.08,88.92C623.38,84.13 623.44,78.51 626.25,73.04C629.21,67.27 633.83,64.73 640.32,65.30C648.61,66.02 654.00,72.12 654.00,80.79C654.00,91.16 645.35,98.28 635.50,96.03ZM599.75,44.36C602.55,41.29 602.59,39.02 599.93,35.63C598.41,33.70 596.94,33.00 594.43,33.00C586.23,33.00 584.15,42.84 591.50,46.84C594.13,48.27 596.98,47.41 599.75,44.36Z" fill="#FFFFFF" fill-rule="evenodd"/></svg>